<svg id="baseline-perm_identity-24px" xmlns="http://www.w3.org/2000/svg" width="30" height="30" viewBox="0 0 30 30">
  <path id="Path_381" data-name="Path 381" d="M15,6.613A2.887,2.887,0,1,1,12.112,9.5,2.887,2.887,0,0,1,15,6.613m0,12.375c4.084,0,8.387,2.008,8.387,2.888v1.513H6.612V21.875c0-.88,4.3-2.888,8.388-2.888M15,4a5.5,5.5,0,1,0,5.5,5.5A5.5,5.5,0,0,0,15,4Zm0,12.375c-3.671,0-11,1.843-11,5.5V26H26V21.875C26,18.218,18.671,16.375,15,16.375Z" transform="translate(0)" fill="#707070"/>
  <path id="Path_382" data-name="Path 382" d="M0,0H30V30H0Z" fill="none"/>
</svg>
