<svg id="outline-cancel-24px" xmlns="http://www.w3.org/2000/svg" width="25" height="25" viewBox="0 0 25 25">
  <g id="Bounding_Boxes">
    <path id="Path_3343" data-name="Path 3343" d="M0,0H25V25H0Z" fill="none" opacity="0.87"/>
  </g>
  <g id="Outline_1_" transform="translate(2 2)">
    <g id="Group_339" data-name="Group 339">
      <path id="Path_3344" data-name="Path 3344" d="M12.5,2A10.5,10.5,0,1,0,23,12.5,10.49,10.49,0,0,0,12.5,2Zm0,18.9a8.4,8.4,0,1,1,8.4-8.4A8.411,8.411,0,0,1,12.5,20.9Z" transform="translate(-2 -2)" fill="#707070"/>
      <path id="Path_3345" data-name="Path 3345" d="M15.59,7,12,10.59,8.41,7,7,8.41,10.59,12,7,15.59,8.41,17,12,13.41,15.59,17,17,15.59,13.41,12,17,8.41Z" transform="translate(-1.5 -1.5)" fill="#707070"/>
    </g>
  </g>
</svg>
